<?xml version="1.0" encoding="utf-8"?>
<!-- Generator: Adobe Illustrator 16.0.4, SVG Export Plug-In . SVG Version: 6.00 Build 0)  -->
<!DOCTYPE svg PUBLIC "-//W3C//DTD SVG 1.1//EN" "http://www.w3.org/Graphics/SVG/1.1/DTD/svg11.dtd">
<svg version="1.1" xmlns="http://www.w3.org/2000/svg" xmlns:xlink="http://www.w3.org/1999/xlink" x="0px" y="0px" width="200px"
	 height="200px" viewBox="0 0 200 200" enable-background="new 0 0 200 200" xml:space="preserve">
<g id="Layer_6">
	<circle fill="#EF4136" cx="98.05" cy="102.82" r="72.393"/>
</g>
<g id="Layer_1">
	<g id="Layer_2">
		<g>
			<circle fill="none" stroke="#434041" stroke-width="4" stroke-miterlimit="10" cx="98.33" cy="102.819" r="76.549"/>
			
				<circle fill="none" stroke="#434041" stroke-width="2" stroke-linecap="round" stroke-miterlimit="10" stroke-dasharray="2,5" cx="98.33" cy="102.819" r="82.408"/>
			<path opacity="0.5" fill="#5D5E5E" d="M163.826,104.187l-5.918-3.127l-4.206-4.238l-4.078-5.127l-3.551-2.506l-7.232-7.226
				l-5.13-4.208l-2.628-5.26l-3.288-0.92L121.878,65l-2.498,2.235l-4.34,3.551l-5.522,7.626l-2.499,0.789l-2.367,2.367l-1.709,0.789
				l1.578,2.762l0.13,2.236l2.364,2.367l4.729,1.84l5.252,1.316l4.849,5.127l-4.768-2.893l-5.984-2.234l-5.786-1.841l-2.542-3.972
				v-1.025l-3.46-5.26l3.902-1.315l-9.862-13.149l-7.496-2.762l-3.682-4.602l-3.551,1.578L76.38,63.29l-3.156,5.392l-2.104,0.921
				l-2.235,0.657l-2.762,3.419c0,0-2.893,3.156-3.287,3.156c-0.395,0-2.631,3.155-2.631,3.155l-3.944,6.049l-1.184,1.446
				l-2.104,3.155l-5.129-1.052l-1.314,2.365l-2.104,2.233l-9.993,17.616l-3.154,1.566l-3.285,6.031l5.634-0.641l4.617-3.027
				l6.838-3.264l4.997-5.523l1.99,5.066l10.131-4.225l4.299-6.294l2.253-4.936l8.81-7.382l-3.215,5.543l13.472-5.543l-11.31,7.252
				l-4.861-0.089l-1.831,2.44l-4.854,7.782l7.445,2.073l-1.915-0.05l-4.532-0.49L54.025,112.6l-2.104,3.133l-1.315,3.027
				l11.177-1.812l9.205-1.215l4.6,1.998l5.783-0.131l0.388-5.262l3.933-1.709l-0.154-3.025l3.24-4.207l5.078-1.883v-3.772
				l7.424,11.499l3.113-0.445l5.97,0.352l3.027,6.586l9.668-2.482v-2.621l0.134-3.154l-2.761-2.894l-4.075-2.763l5.522,0.789
				l3.155,2.762l3.156,0.951l2.235,3.123l9.338,1.055l-0.132-3.553l3.682,1.71l5.785-0.394l9.277,2.498l11.631-0.262
				L163.826,104.187z M77.751,80.783L73.175,81.8l4.576-4.068V80.783z M98.663,83.814l-6.992-4.1v-2.897l-4.311-3.87l1.161,6.462
				l-4.517-6.462l-3.758,5.395v-4.728L65.185,85.053l5.093-8.389l-4.423,1.678l4.27-6.405l4.449-1.362l3.94-7.187l3.356-1.308
				l1.983,2.523l8.489,2.757L99,77.275l-3.997,1.067L98.663,83.814z M146.262,93.289l-3.69-2.126l-5.187-5.5l-6.253-3.864
				l-1.983-4.068h-3.201l-7.836-7.157l3.278-2.757l4.861,5.749h3.356l3.186,5.233l5.508,5.014l5.42,5.406l4.645,3.282l2.74,5.057
				L146.262,93.289z"/>
			<g>
				<g>
					<g>
						<g>
							
								<line fill="none" stroke="#464C53" stroke-width="1.7" stroke-linecap="round" stroke-linejoin="round" x1="56.683" y1="63.008" x2="138.418" y2="144.744"/>
							<g>
								<polygon fill="#464C53" points="55.749,71.907 57.45,71.847 57.143,63.47 65.521,63.776 65.581,62.076 55.378,61.705 
																	"/>
							</g>
							<g>
								<polygon fill="#464C53" points="129.519,145.678 129.579,143.977 137.955,144.284 137.649,135.906 139.351,135.846 
									139.721,146.049 								"/>
							</g>
						</g>
					</g>
					<g>
						<g>
							
								<line fill="none" stroke="#464C53" stroke-width="1.7" stroke-linecap="round" stroke-linejoin="round" x1="139.706" y1="63.008" x2="57.97" y2="144.744"/>
							<g>
								<polygon fill="#464C53" points="130.807,62.075 130.867,63.775 139.243,63.468 138.938,71.846 140.639,71.906 
									141.009,61.703 								"/>
							</g>
							<g>
								<polygon fill="#464C53" points="57.037,135.845 58.737,135.905 58.43,144.281 66.808,143.976 66.868,145.677 
									56.666,146.047 								"/>
							</g>
						</g>
					</g>
				</g>
			</g>
			<g>
				<path fill="#464C53" d="M138.949,94.419l2.854,2.855l-18.682,18.682c-0.203,0.203-0.537,0.203-0.741,0l-1.509-1.509
					c-0.204-0.204-0.204-0.538,0-0.742l7.191-7.191c3.024-2.788,2.618-3.832,4.299-5.512L138.949,94.419L138.949,94.419z
					 M150.17,94.118l-5.105,5.105l0.84,1.746c2.487-1.411,4.705-3.261,6.215-6.215L150.17,94.118z M134.48,85.888L134.48,85.888
					l-0.236,1.043c1.581,1.51,5.407,2.586,3.294,4.837c0.269,0.334,7.159,7.159,7.159,7.159l5.039-5.04
					C145.564,92.438,140.02,86.624,134.48,85.888z"/>
			</g>
			<g>
				<g id="Artwork_11_">
					<path fill="#464C53" d="M73.168,112.518l-5.244-1.791c0,0-0.219-0.104-0.303-0.188c-0.569-0.568-2.554-2.555-5.119-5.119
						c-0.102-0.07-0.033-0.17,0-0.205c3.578-3.578,7.069-7.068,9.459-9.458c2.268-2.269,1.359-4.354-0.784-2.211
						c-0.562,0.562-1.721,0.579-3.156,0.275c-0.318-0.067-0.633-0.14-0.966-0.218c-3.336-0.773-7.094-1.644-12.724,3.469
						c-0.031,0.028-0.11,0.114-0.232-0.009c-1.092-1.092-1.934-1.979-2.714-2.76c-0.171-0.171-0.036-0.289-0.036-0.289l0.41-0.41
						c0.517-0.516,0.396-1.188-0.267-1.493l-5.734-2.641c-0.663-0.306-0.956-0.013-0.651,0.65l2.64,5.734
						c0.306,0.663,0.978,0.783,1.494,0.267l0.329-0.329c0,0,0.181-0.234,0.37-0.045c0.778,0.778,1.586,1.586,2.676,2.676
						c0.137,0.121,0.121,0.226,0.096,0.253c-5.275,5.751-4.297,10.177-3.503,13.763l0.037,0.168
						c0.347,1.572,0.205,2.811-0.547,3.562c-1.63,1.631-1.048,3.896,2.488,0.361c2.44-2.441,6.028-6.029,9.686-9.686
						c0.027-0.027,0.083-0.066,0.192,0.025c2.608,2.609,4.613,4.613,5.136,5.137c0.068,0.068,0.159,0.268,0.159,0.268l1.794,5.256
						c0.236,0.689,0.664,0.707,0.952,0.035l0.706-1.648c0.288-0.67,1.072-1.455,1.743-1.742l1.649-0.707
						C73.875,113.182,73.859,112.754,73.168,112.518z M66.537,95.841c0.329,0.077,0.67,0.155,1.009,0.228
						c0.402,0.085,0.789,0.146,1.159,0.182c0,0-5.698,5.699-7.597,7.599c-0.101,0.1-0.199-0.023-0.199-0.023
						c-1.687-1.688-3.282-3.283-4.948-4.947c-0.08-0.093-0.038-0.148-0.01-0.175C60.64,94.476,63.51,95.14,66.537,95.841z
						 M51.676,113.279c-0.034-0.365-0.094-0.754-0.185-1.168l-0.038-0.168c-0.742-3.352-1.507-6.812,2.886-11.64
						c0.025-0.027,0.112-0.059,0.188,0.03c1.667,1.667,3.294,3.295,4.983,4.983c0,0,0.05,0.08-0.026,0.154
						C57.51,107.447,51.676,113.279,51.676,113.279z"/>
				</g>
			</g>
			<g>
				<path fill="#464C53" d="M105.535,62.15v-3.413c0-0.383-0.296-0.696-0.679-0.696H92.251c-0.383,0-0.679,0.313-0.679,0.696v3.413
					h2.438v-1.672h9.088v1.672H105.535z"/>
				<path fill="#464C53" d="M84.333,63.507c-0.383,0-0.7,0.324-0.7,0.707v18.644c0,0.383,0.313,0.707,0.7,0.707h2.608v0.627
					c0,0.083,0.024,0.174,0.049,0.243c0.098,0.244,0.352,0.453,0.654,0.453h3.935c0.303,0,0.561-0.209,0.655-0.453
					c0.024-0.069,0.031-0.163,0.031-0.243v-0.627h12.605v0.627c0,0.083,0.007,0.174,0.031,0.243
					c0.098,0.244,0.353,0.453,0.655,0.453h3.935c0.303,0,0.561-0.209,0.654-0.453c0.024-0.069,0.049-0.163,0.049-0.243v-0.627h2.573
					c0.383,0,0.7-0.324,0.7-0.707V64.214c0-0.383-0.313-0.707-0.7-0.707h-7.232h-2.438h-9.088h-2.438H84.333z M92.477,72.078
					c0-0.384,0.331-0.7,0.714-0.7h3.186v-2.124v-1.101c0-0.383,0.313-0.711,0.7-0.711h2.952c0.384,0,0.701,0.328,0.701,0.711v1.101
					v2.124h3.186c0.383,0,0.68,0.316,0.68,0.7v2.914c0,0.383-0.297,0.7-0.68,0.7h-3.186v3.225c0,0.383-0.314,0.71-0.701,0.71h-2.952
					c-0.383,0-0.7-0.327-0.7-0.71v-3.221h-3.186c-0.383,0-0.714-0.317-0.714-0.7V72.078L92.477,72.078z"/>
			</g>
			<g>
				<g>
					<path fill="#464C53" d="M108.771,143.566l-5.712-2.375l5.717-2.358c0.88-0.365,1.3-1.373,0.938-2.253
						c-0.366-0.88-1.376-1.301-2.255-0.938l-8.906,3.677l-8.898-3.699c-0.878-0.365-1.89,0.053-2.256,0.932
						c-0.365,0.88,0.051,1.889,0.931,2.255l5.712,2.376l-5.718,2.358c-0.88,0.364-1.3,1.373-0.937,2.254
						c0.275,0.665,0.917,1.066,1.596,1.066c0.219,0,0.442-0.041,0.657-0.132l8.908-3.676l8.899,3.698
						c0.217,0.09,0.439,0.133,0.661,0.133c0.676,0,1.317-0.4,1.593-1.064C110.066,144.942,109.65,143.932,108.771,143.566z"/>
					<path fill="#464C53" d="M98.55,137.122c4.032,0,7.3-3.268,7.3-7.299c0-1.012-0.461-2.347-1.15-3.778
						c-0.088-0.188-0.299-0.29-0.502-0.245c-0.204,0.044-0.352,0.224-0.355,0.433c-0.027,1.515-0.437,2.545-0.939,3.241
						c-0.06,0.081-0.168,0.106-0.258,0.059c-0.087-0.047-0.129-0.153-0.092-0.247c0.354-0.932,0.184-2.315-1.618-4.263
						c-1.688-1.823-2.104-3.256-2.025-4.303c0.016-0.207-0.101-0.402-0.291-0.487c-0.19-0.087-0.414-0.042-0.558,0.108
						c-1.724,1.789-3.845,4.717-3.23,7.683c0.026,0.126-0.04,0.251-0.16,0.298c-0.119,0.048-0.254,0.004-0.323-0.105
						c-0.439-0.707-0.839-1.764-0.692-3.159c0.024-0.227-0.115-0.439-0.333-0.508c-0.217-0.069-0.455,0.025-0.564,0.226
						c-0.793,1.428-1.507,3.222-1.507,5.05C91.251,133.854,94.518,137.122,98.55,137.122z"/>
				</g>
			</g>
		</g>
	</g>
</g>
<g id="THE_GEAR_UP" opacity="0.98">
	<g>
		<path fill="#FFFFFF" d="M69.566,101.612h8.496v3.576h-1.2v4.8c-0.368,0.177-0.796,0.356-1.284,0.54
			c-0.488,0.185-1.048,0.349-1.68,0.492c-0.632,0.144-1.34,0.264-2.124,0.36c-0.784,0.096-1.656,0.144-2.616,0.144
			c-1.44,0-2.736-0.176-3.888-0.528c-1.152-0.352-2.132-0.911-2.94-1.68c-0.808-0.768-1.428-1.764-1.86-2.988
			c-0.432-1.224-0.648-2.716-0.648-4.476c0-1.744,0.216-3.231,0.648-4.464s1.048-2.232,1.848-3c0.8-0.769,1.776-1.328,2.928-1.681
			c1.152-0.352,2.44-0.527,3.864-0.527c0.976,0,1.86,0.048,2.652,0.144c0.792,0.097,1.504,0.221,2.136,0.372
			c0.632,0.152,1.191,0.32,1.68,0.504c0.488,0.185,0.916,0.364,1.284,0.54v5.736h-6v-1.128c0-0.688-0.14-1.176-0.42-1.464
			c-0.28-0.288-0.724-0.433-1.332-0.433c-0.608,0-1.052,0.145-1.332,0.433c-0.28,0.288-0.42,0.776-0.42,1.464v7.008
			c0,0.688,0.14,1.176,0.42,1.464c0.28,0.288,0.724,0.433,1.332,0.433c0.608,0,1.052-0.145,1.332-0.433
			c0.28-0.288,0.42-0.775,0.42-1.464v-0.168h-1.296V101.612z"/>
		<path fill="#FFFFFF" d="M90.038,96.452h-2.904v3.792h2.112v2.736h-2.112v4.272h2.904v-3.792h5.376v7.728h-16.44v-3.936h1.44
			V96.452h-1.44v-3.936h16.44v7.248h-5.376V96.452z"/>
		<path fill="#FFFFFF" d="M105.781,107.253h1.44l-0.408-1.896h-3.24l-0.384,1.896h1.439v3.936h-8.208v-3.936h0.96l4.057-14.736
			h8.735l4.057,14.736h0.96v3.936h-9.408V107.253z M104.102,102.812h2.208l-0.984-4.8h-0.24L104.102,102.812z"/>
		<path fill="#FFFFFF" d="M124.117,107.253h1.584v3.936h-9.744v-3.936h1.44V96.452h-1.44v-3.936h11.256
			c0.976,0,1.86,0.096,2.652,0.288c0.792,0.191,1.46,0.5,2.004,0.924s0.964,0.98,1.26,1.668c0.296,0.688,0.444,1.528,0.444,2.52
			c0,1.057-0.213,1.977-0.637,2.761s-1.044,1.336-1.859,1.655l0.023,0.24c1.536,0.24,2.305,1.185,2.305,2.832v1.849h1.128v3.936
			h-7.608v-5.64c0-0.48-0.052-0.868-0.156-1.164c-0.104-0.296-0.271-0.521-0.504-0.672c-0.231-0.152-0.523-0.256-0.876-0.312
			c-0.352-0.056-0.776-0.084-1.271-0.084V107.253z M125.413,100.389c0.464,0,0.812-0.12,1.044-0.36
			c0.231-0.24,0.348-0.632,0.348-1.176v-0.864c0-0.544-0.116-0.936-0.348-1.176c-0.232-0.24-0.58-0.36-1.044-0.36h-1.296v3.937
			H125.413z"/>
	</g>
	<g>
		<path fill="#FFFFFF" d="M119.989,125.1c0,1.188-0.165,2.188-0.495,3.003c-0.33,0.813-0.803,1.478-1.419,1.991
			c-0.616,0.513-1.36,0.884-2.233,1.11c-0.872,0.228-1.844,0.341-2.915,0.341c-1.1,0-2.094-0.113-2.98-0.341
			c-0.888-0.227-1.643-0.598-2.266-1.11c-0.624-0.514-1.108-1.178-1.452-1.991c-0.345-0.814-0.518-1.815-0.518-3.003v-7.37h-1.319
			v-3.608h8.359v3.608h-0.88v8.492c0,0.498,0.106,0.857,0.319,1.077c0.212,0.221,0.531,0.33,0.957,0.33
			c0.425,0,0.744-0.109,0.957-0.33c0.212-0.22,0.318-0.579,0.318-1.077v-8.492h-0.88v-3.608h7.767v3.608h-1.32V125.1z"/>
		<path fill="#FFFFFF" d="M131.605,131.237h-9.592v-3.608h1.319v-9.899h-1.319v-3.608h9.878c0.895,0,1.705,0.092,2.431,0.275
			c0.727,0.184,1.339,0.48,1.837,0.891c0.499,0.411,0.884,0.946,1.155,1.606s0.407,1.459,0.407,2.397
			c0,0.954-0.136,1.757-0.407,2.409c-0.271,0.653-0.656,1.185-1.155,1.595c-0.498,0.411-1.11,0.708-1.837,0.892
			c-0.726,0.184-1.536,0.274-2.431,0.274h-2.398v3.168h2.112V131.237z M130.241,121.337c0.411,0,0.727-0.109,0.946-0.33
			c0.22-0.22,0.33-0.579,0.33-1.077v-0.792c0-0.499-0.106-0.858-0.319-1.078c-0.213-0.221-0.531-0.33-0.957-0.33h-0.748v3.607
			H130.241z"/>
	</g>
	<g>
		<path fill="#FFFFFF" d="M63.275,85.979c0-0.219,0.045-0.41,0.136-0.573c0.091-0.163,0.219-0.302,0.384-0.417
			c0.165-0.115,0.362-0.209,0.593-0.284s0.484-0.132,0.761-0.174c0.276-0.042,0.573-0.07,0.889-0.084
			c0.316-0.014,0.643-0.021,0.98-0.021c0.453,0,0.928,0.017,1.424,0.051s1.014,0.095,1.553,0.185
			c0.125,0.024,0.213,0.068,0.264,0.131c0.051,0.062,0.076,0.133,0.076,0.21c0,0.058-0.012,0.114-0.035,0.168
			s-0.055,0.105-0.094,0.151c-0.039,0.046-0.084,0.083-0.137,0.11s-0.107,0.041-0.164,0.041c-0.201,0-0.41-0.013-0.627-0.039
			c-0.217-0.026-0.444-0.055-0.68-0.087c-0.236-0.033-0.479-0.065-0.729-0.097c-0.25-0.033-0.508-0.057-0.773-0.073
			c-0.047,0.339-0.114,0.674-0.2,1.007s-0.175,0.673-0.266,1.022c-0.091,0.349-0.182,0.697-0.272,1.045s-0.177,0.681-0.26,1
			s-0.16,0.613-0.229,0.882c-0.07,0.27-0.131,0.501-0.181,0.696c-0.021,0.087-0.055,0.167-0.1,0.24
			c-0.044,0.073-0.095,0.136-0.15,0.189c-0.056,0.054-0.113,0.095-0.173,0.125c-0.06,0.029-0.115,0.044-0.167,0.044
			c-0.154,0-0.281-0.035-0.381-0.105c-0.1-0.07-0.15-0.184-0.15-0.34c0-0.049,0.008-0.104,0.023-0.164
			c0.057-0.23,0.115-0.46,0.172-0.69s0.117-0.47,0.18-0.722c0.063-0.251,0.143-0.517,0.239-0.795c0.096-0.278,0.203-0.585,0.32-0.92
			c0.117-0.334,0.244-0.71,0.381-1.125c0.137-0.416,0.285-0.878,0.443-1.388c-0.138,0.011-0.278,0.023-0.42,0.037
			c-0.142,0.014-0.28,0.032-0.414,0.055c-0.134,0.023-0.261,0.053-0.381,0.088c-0.12,0.035-0.23,0.08-0.33,0.135
			c-0.1,0.055-0.178,0.12-0.236,0.196c-0.058,0.076-0.087,0.167-0.087,0.27c0,0.005-0.003,0.035-0.009,0.09
			s-0.028,0.114-0.064,0.178c-0.037,0.064-0.095,0.123-0.175,0.176c-0.08,0.053-0.193,0.08-0.341,0.08s-0.262-0.026-0.343-0.078
			c-0.082-0.052-0.141-0.11-0.177-0.172C63.305,86.157,63.28,86.073,63.275,85.979z"/>
		<path fill="#FFFFFF" d="M70.24,88.79c0.107-0.145,0.227-0.3,0.359-0.466c0.133-0.166,0.311-0.357,0.533-0.574
			s0.405-0.373,0.547-0.467c0.142-0.095,0.275-0.143,0.4-0.143c0.031,0,0.066,0.006,0.105,0.018
			c0.039,0.012,0.076,0.034,0.111,0.065s0.064,0.077,0.088,0.133c0.023,0.057,0.035,0.131,0.035,0.221
			c0,0.18-0.025,0.356-0.074,0.527s-0.143,0.379-0.281,0.623s-0.231,0.455-0.279,0.633s-0.072,0.364-0.072,0.558
			c0,0.106,0.016,0.191,0.047,0.254c0.031,0.064,0.072,0.096,0.121,0.096c0.062,0,0.129-0.013,0.199-0.04s0.141-0.061,0.211-0.103
			s0.139-0.09,0.207-0.144c0.068-0.054,0.131-0.11,0.191-0.167c0.143-0.134,0.284-0.287,0.422-0.458l0.066,1.04
			c-0.047,0.034-0.106,0.077-0.178,0.128s-0.151,0.106-0.238,0.163c-0.087,0.058-0.182,0.116-0.283,0.174
			c-0.102,0.059-0.204,0.111-0.307,0.156c-0.103,0.045-0.206,0.083-0.309,0.112s-0.201,0.044-0.295,0.044
			c-0.146,0-0.274-0.037-0.382-0.11s-0.196-0.166-0.266-0.279c-0.069-0.113-0.122-0.236-0.156-0.37
			c-0.035-0.134-0.052-0.261-0.052-0.38c0-0.084,0.012-0.178,0.035-0.282c0.023-0.104,0.051-0.209,0.085-0.314
			c0.034-0.105,0.072-0.208,0.114-0.308s0.081-0.189,0.118-0.269c0.037-0.079,0.068-0.143,0.096-0.193
			c0.027-0.05,0.044-0.079,0.053-0.087l-0.082-0.012c-0.044,0.028-0.119,0.101-0.225,0.216c-0.105,0.116-0.225,0.262-0.357,0.438
			c-0.133,0.177-0.27,0.375-0.412,0.595s-0.27,0.447-0.385,0.682c-0.057,0.116-0.104,0.217-0.141,0.304
			c-0.037,0.086-0.072,0.156-0.107,0.208c-0.035,0.053-0.074,0.092-0.115,0.119s-0.095,0.041-0.16,0.041
			c-0.086,0-0.154-0.023-0.203-0.07s-0.087-0.108-0.113-0.185s-0.043-0.165-0.051-0.262c-0.008-0.098-0.012-0.198-0.012-0.301
			c0-0.179,0.002-0.413,0.006-0.702s0.016-0.61,0.037-0.963c0.021-0.352,0.059-0.717,0.114-1.095
			c0.055-0.378,0.11-0.753,0.165-1.127c0.055-0.374,0.136-0.73,0.245-1.067c0.108-0.338,0.24-0.635,0.395-0.892
			c0.155-0.257,0.337-0.461,0.545-0.612s0.448-0.227,0.72-0.227c0.141,0,0.256,0.021,0.346,0.063s0.162,0.101,0.215,0.177
			c0.053,0.076,0.09,0.167,0.111,0.273s0.031,0.225,0.031,0.355c0,0.195-0.027,0.411-0.082,0.647s-0.127,0.482-0.217,0.738
			c-0.09,0.255-0.192,0.514-0.307,0.775s-0.232,0.516-0.352,0.761c-0.12,0.246-0.238,0.479-0.354,0.697s-0.218,0.41-0.307,0.576
			L70.24,88.79z M70.587,86.332c0.154-0.398,0.266-0.734,0.335-1.008c0.069-0.273,0.104-0.475,0.104-0.605
			c0-0.198-0.028-0.297-0.083-0.297c-0.067,0-0.168,0.111-0.301,0.332s-0.289,0.542-0.469,0.964
			c-0.044,0.143-0.085,0.292-0.123,0.445c-0.038,0.153-0.068,0.307-0.09,0.46s-0.044,0.304-0.065,0.452
			c-0.021,0.148-0.042,0.288-0.061,0.419c-0.057,0.31-0.101,0.612-0.131,0.908c0.07-0.164,0.147-0.342,0.231-0.535
			c0.083-0.192,0.166-0.383,0.246-0.572c0.081-0.189,0.157-0.367,0.229-0.535S70.54,86.449,70.587,86.332z"/>
		<path fill="#FFFFFF" d="M74.41,91.175c-0.243,0-0.456-0.045-0.638-0.135c-0.183-0.09-0.334-0.211-0.456-0.364
			s-0.213-0.329-0.273-0.529c-0.061-0.2-0.091-0.41-0.091-0.63c0-0.144,0.027-0.315,0.082-0.515s0.111-0.376,0.169-0.53
			c0.058-0.154,0.131-0.301,0.22-0.441c0.088-0.14,0.191-0.264,0.309-0.37c0.118-0.107,0.25-0.192,0.396-0.254
			c0.146-0.063,0.309-0.095,0.488-0.095c0.146,0,0.281,0.023,0.406,0.07c0.125,0.047,0.234,0.112,0.327,0.197
			c0.093,0.084,0.165,0.187,0.217,0.307c0.052,0.12,0.078,0.253,0.078,0.402c0,0.158-0.053,0.334-0.159,0.531
			c-0.105,0.196-0.229,0.364-0.37,0.504c-0.141,0.14-0.309,0.265-0.503,0.375c-0.195,0.109-0.405,0.195-0.632,0.256
			c0.039,0.069,0.078,0.126,0.116,0.172c0.038,0.046,0.076,0.082,0.115,0.107c0.04,0.025,0.081,0.043,0.124,0.054
			c0.043,0.01,0.09,0.015,0.139,0.015c0.156,0,0.321-0.03,0.494-0.092c0.173-0.061,0.342-0.137,0.506-0.229s0.319-0.192,0.465-0.3
			c0.146-0.108,0.27-0.211,0.371-0.308l0.504,0.512c-0.229,0.244-0.473,0.46-0.73,0.648c-0.112,0.081-0.232,0.16-0.361,0.237
			s-0.264,0.147-0.406,0.207c-0.142,0.061-0.289,0.109-0.441,0.145S74.566,91.175,74.41,91.175z M73.889,89.315
			c0.094,0,0.197-0.023,0.308-0.071c0.111-0.047,0.214-0.107,0.31-0.181c0.095-0.074,0.189-0.173,0.28-0.298
			c0.091-0.125,0.137-0.228,0.137-0.309c0-0.115-0.021-0.209-0.064-0.283c-0.043-0.074-0.096-0.111-0.159-0.111
			c-0.112,0-0.208,0.021-0.288,0.061c-0.08,0.041-0.146,0.094-0.2,0.159c-0.053,0.065-0.097,0.139-0.129,0.222
			c-0.033,0.083-0.071,0.185-0.114,0.307c-0.043,0.123-0.067,0.223-0.073,0.302C73.891,89.191,73.889,89.259,73.889,89.315z"/>
	</g>
</g>
<g id="Layer_5">
	<g>
		<line display="none" fill="none" stroke="#E5E6E7" stroke-miterlimit="10" x1="31" y1="133.5" x2="164" y2="133.5"/>
		<line display="none" fill="none" stroke="#E5E6E7" stroke-miterlimit="10" x1="31" y1="91.5" x2="164" y2="91.5"/>
	</g>
</g>
</svg>
