<?xml version="1.0" encoding="iso-8859-1"?>
<!-- Generator: Adobe Illustrator 16.0.0, SVG Export Plug-In . SVG Version: 6.00 Build 0)  -->
<!DOCTYPE svg PUBLIC "-//W3C//DTD SVG 1.1//EN" "http://www.w3.org/Graphics/SVG/1.1/DTD/svg11.dtd">
<svg version="1.1" id="Capa_1" xmlns="http://www.w3.org/2000/svg" xmlns:xlink="http://www.w3.org/1999/xlink" x="0px" y="0px"
	 width="856.8px" height="856.8px" viewBox="0 0 856.8 856.8" style="enable-background:new 0 0 856.8 856.8;" xml:space="preserve"
	>
<g>
	<path d="M629,160.9v-98c0-11-8.5-20-19.5-20h-362c-11,0-19.5,9-19.5,20v98h70v-48h261v48H629z"/>
	<path d="M20.1,199.9c-11,0-20.1,9.3-20.1,20.3v535.4c0,11,9,20.3,20.1,20.3H95v18c0,2.4,0.7,5,1.4,7c2.8,7,10.1,13,18.8,13h113
		c8.7,0,16.1-6,18.8-13c0.7-2,0.9-4.7,0.9-7v-18h362v18c0,2.4,0.199,5,0.899,7c2.8,7,10.101,13,18.8,13h113
		c8.7,0,16.101-6,18.801-13c0.699-2,1.399-4.7,1.399-7v-18h73.9c11,0,20.1-9.3,20.1-20.3V220.2c0-11-9-20.3-20.1-20.3H629h-70H298
		h-70H20.1z M254,446c0-11,9.5-20.1,20.5-20.1H366v-61v-31.6c0-11,9-20.4,20.1-20.4H470.9c11,0,20.1,9.4,20.1,20.4v31.6v61h91.5
		c11,0,19.5,9.1,19.5,20.1v83.7c0,11-8.5,20.101-19.5,20.101H491v92.6c0,11-9,20.4-20.1,20.4H386.1c-11,0-20.1-9.4-20.1-20.4v-92.5
		h-91.5c-11,0-20.5-9.1-20.5-20.1V446L254,446z"/>
</g>
<g>
</g>
<g>
</g>
<g>
</g>
<g>
</g>
<g>
</g>
<g>
</g>
<g>
</g>
<g>
</g>
<g>
</g>
<g>
</g>
<g>
</g>
<g>
</g>
<g>
</g>
<g>
</g>
<g>
</g>
</svg>
