<?xml version="1.0" encoding="utf-8"?>
<!-- Generator: Adobe Illustrator 16.0.4, SVG Export Plug-In . SVG Version: 6.00 Build 0)  -->
<!DOCTYPE svg PUBLIC "-//W3C//DTD SVG 1.1//EN" "http://www.w3.org/Graphics/SVG/1.1/DTD/svg11.dtd">
<svg version="1.1" xmlns="http://www.w3.org/2000/svg" xmlns:xlink="http://www.w3.org/1999/xlink" x="0px" y="0px" width="100px"
	 height="40px" viewBox="0 0 100 40" enable-background="new 0 0 100 40" xml:space="preserve">
<g id="Layer_1" display="none">
	<rect display="inline" fill="#EF4036" width="100" height="40"/>
</g>
<g id="Layer_2">
	<text transform="matrix(1 0 0 1 22.3408 25.3887)" fill="#FFFFFF" font-family="'AlfaSlabOne-Regular'" font-size="12.9239">GEAR </text>
	<text transform="matrix(1 0 0 1 64.8389 25.3887)" fill="#FFFFFF" font-family="'AlfaSlabOne-Regular'" font-size="11.8469">UP</text>
	<text transform="matrix(1 0 0 1 24.04 14.6113)" fill="#FFFFFF" font-family="'Pacifico'" font-size="4.308">The </text>
	<path opacity="0.5" fill="#5E5E5E" d="M90.763,29.092l-3.585-1.894l-2.547-2.567l-2.471-3.105l-2.15-1.518l-4.38-4.376
		l-3.107-2.549l-1.591-3.186L68.94,9.34l-3.585-3.982l-1.512,1.354l-2.629,2.15l-3.346,4.619l-1.513,0.478l-1.434,1.434
		l-1.036,0.477l0.957,1.673l0.078,1.354l1.432,1.433l2.864,1.115l3.181,0.797l2.938,3.105l-2.888-1.752l-3.624-1.354l-3.504-1.115
		l-1.541-2.405v-0.621l-2.096-3.186l2.363-0.796l-5.973-7.964l-4.54-1.672l-2.23-2.788l-2.15,0.956L37.8,4.322l-1.912,3.266
		l-1.274,0.558L33.26,8.543l-1.672,2.071c0,0-1.752,1.912-1.991,1.912c-0.239,0-1.593,1.911-1.593,1.911l-2.389,3.664l-0.717,0.875
		l-1.274,1.912l-3.106-0.638l-0.796,1.433l-1.274,1.353l-6.052,10.67l-1.91,0.949l-1.99,3.652l3.412-0.389l2.796-1.834l4.141-1.977
		l3.026-3.344l1.206,3.068l6.136-2.559l2.604-3.812l1.365-2.989L38.517,20l-1.947,3.357L44.729,20l-6.85,4.392l-2.944-0.055
		l-1.108,1.479l-2.94,4.712l4.51,1.256l-1.16-0.029l-2.745-0.297l-7.231,2.729l-1.274,1.896l-0.797,1.834l6.77-1.098l5.575-0.736
		l2.786,1.211l3.503-0.078l0.235-3.188l2.382-1.035l-0.093-1.832l1.962-2.549l3.075-1.141v-2.284l4.497,6.964l1.885-0.27
		l3.615,0.213l1.834,3.988l5.855-1.502v-1.588l0.081-1.91L64.48,29.33l-2.469-1.673l3.344,0.479l1.912,1.673l1.911,0.576
		l1.354,1.891l5.655,0.639l-0.08-2.15l2.229,1.035l3.504-0.238l5.62,1.512l7.044-0.158L90.763,29.092z M38.63,14.917l-2.772,0.616
		l2.772-2.463V14.917z M51.295,16.753l-4.234-2.483v-1.755l-2.611-2.344l0.703,3.914l-2.735-3.914l-2.276,3.267v-2.864l-9.122,6.928
		l3.085-5.081l-2.679,1.016l2.586-3.879l2.694-0.825l2.386-4.353l2.033-0.792l1.201,1.528l5.141,1.67l4.034,6.004l-2.421,0.646
		L51.295,16.753z M80.125,22.492l-2.235-1.288l-3.142-3.331l-3.788-2.34l-1.2-2.463H67.82l-4.746-4.335l1.986-1.67l2.944,3.482
		h2.032l1.93,3.169l3.336,3.037l3.282,3.274l2.812,1.988l1.66,3.062L80.125,22.492z"/>
</g>
</svg>
