<?xml version="1.0" encoding="utf-8"?>
<!-- Generator: Adobe Illustrator 16.0.4, SVG Export Plug-In . SVG Version: 6.00 Build 0)  -->
<!DOCTYPE svg PUBLIC "-//W3C//DTD SVG 1.1//EN" "http://www.w3.org/Graphics/SVG/1.1/DTD/svg11.dtd">
<svg version="1.1" xmlns="http://www.w3.org/2000/svg" xmlns:xlink="http://www.w3.org/1999/xlink" x="0px" y="0px" width="100px"
	 height="50px" viewBox="0 0 100 50" enable-background="new 0 0 100 50" xml:space="preserve">
<g id="Layer_1">
	<rect display="none" fill="#EE4036" width="100" height="50"/>
	<path fill="#EE4036" d="M86.719,33.918l-3.534-1.867l-2.511-2.53l-2.435-3.061l-2.119-1.497l-4.317-4.312l-3.063-2.512l-1.568-3.14
		l-1.962-0.55l-3.533-3.925l-1.492,1.334l-2.59,2.12l-3.297,4.553l-1.492,0.471l-1.412,1.412l-1.021,0.471l0.943,1.648l0.076,1.336
		l1.412,1.412l2.824,1.1l3.135,0.785l2.895,3.061L58.81,28.5l-3.573-1.334l-3.453-1.1l-1.518-2.371v-0.611l-2.066-3.141l2.33-0.785
		l-5.888-7.85L40.167,9.66l-2.198-2.748l-2.12,0.941l-1.334,1.649l-1.884,3.219l-1.256,0.55l-1.334,0.392l-1.648,2.042
		c0,0-1.728,1.884-1.962,1.884c-0.236,0-1.571,1.884-1.571,1.884l-2.354,3.611l-0.707,0.863l-1.255,1.883l-3.062-0.627l-0.785,1.412
		l-1.256,1.333L9.473,38.465L7.59,39.4L5.629,43l3.363-0.383l2.756-1.807l4.082-1.949l2.983-3.297l1.188,3.025l6.048-2.523
		l2.566-3.757l1.345-2.946l5.259-4.406l-1.919,3.309l8.042-3.309l-6.752,4.328l-2.901-0.053l-1.093,1.457L27.7,35.336l4.445,1.236
		l-1.144-0.029l-2.705-0.293l-7.127,2.689l-1.256,1.871l-0.785,1.807l6.672-1.082l5.495-0.725l2.747,1.193l3.453-0.08l0.231-3.141
		l2.348-1.02l-0.092-1.807l1.934-2.512l3.031-1.123V30.07l4.432,6.865l1.859-0.268l3.562,0.211l1.809,3.932l5.771-1.482v-1.564
		l0.08-1.883l-1.647-1.729l-2.434-1.648l3.297,0.471l1.883,1.648l1.885,0.568l1.335,1.865l5.574,0.629l-0.078-2.121l2.197,1.021
		l3.453-0.236l5.539,1.492l6.943-0.156L86.719,33.918z M35.333,19.945l-2.732,0.607l2.732-2.428V19.945z M47.817,21.756
		l-4.174-2.447v-1.73l-2.574-2.31l0.693,3.858l-2.696-3.858l-2.244,3.22v-2.822l-8.991,6.83l3.041-5.009l-2.641,1.001l2.549-3.824
		l2.656-0.813l2.352-4.29l2.004-0.781l1.184,1.506l5.067,1.646l3.975,5.918l-2.385,0.637L47.817,21.756z M76.232,27.412l-2.203-1.27
		l-3.096-3.283l-3.732-2.307l-1.186-2.428h-1.91l-4.678-4.272l1.956-1.646l2.902,3.432h2.003l1.902,3.124l3.288,2.994l3.236,3.227
		l2.772,1.96l1.636,3.019L76.232,27.412z"/>
</g>
<g id="Layer_2">
	<g>
		<path fill="#FFFFFF" d="M12.7,24.878h6.881v2.896h-0.972v3.888c-0.298,0.143-0.645,0.289-1.04,0.438
			c-0.396,0.149-0.849,0.282-1.36,0.398c-0.512,0.116-1.086,0.213-1.721,0.291s-1.341,0.117-2.119,0.117
			c-1.166,0-2.216-0.143-3.148-0.428c-0.934-0.285-1.727-0.738-2.381-1.36c-0.655-0.622-1.157-1.429-1.506-2.421
			c-0.35-0.99-0.525-2.199-0.525-3.625c0-1.413,0.175-2.617,0.525-3.615c0.35-0.998,0.849-1.808,1.497-2.43
			c0.648-0.623,1.438-1.076,2.371-1.361c0.934-0.285,1.976-0.427,3.13-0.427c0.79,0,1.506,0.039,2.147,0.116
			c0.642,0.078,1.218,0.179,1.73,0.301c0.511,0.124,0.965,0.26,1.36,0.408c0.395,0.149,0.742,0.295,1.04,0.438v4.646H13.75v-0.913
			c0-0.557-0.114-0.953-0.34-1.186c-0.227-0.233-0.586-0.35-1.079-0.35c-0.493,0-0.852,0.117-1.079,0.35
			c-0.227,0.233-0.34,0.629-0.34,1.186v5.675c0,0.558,0.113,0.953,0.34,1.186c0.227,0.234,0.586,0.352,1.079,0.352
			c0.492,0,0.852-0.117,1.079-0.352c0.227-0.232,0.34-0.628,0.34-1.186v-0.136H12.7V24.878z"/>
		<path fill="#FFFFFF" d="M29.279,20.699h-2.352v3.071h1.71v2.216h-1.71v3.461h2.352v-3.071h4.354v6.258H20.319v-3.187h1.167v-8.748
			h-1.167v-3.188h13.315v5.87h-4.354V20.699z"/>
		<path fill="#FFFFFF" d="M42.03,29.447h1.167l-0.331-1.537h-2.624l-0.312,1.537h1.166v3.187H34.45v-3.187h0.776l3.285-11.936h7.075
			l3.285,11.936h0.777v3.187H42.03V29.447z M40.67,25.851h1.788l-0.797-3.888h-0.195L40.67,25.851z"/>
		<path fill="#FFFFFF" d="M56.881,29.447h1.282v3.187h-7.892v-3.187h1.167v-8.748h-1.167v-3.188h9.116
			c0.79,0,1.507,0.078,2.148,0.233c0.642,0.155,1.183,0.405,1.623,0.748c0.439,0.344,0.779,0.794,1.02,1.351
			c0.239,0.558,0.36,1.238,0.36,2.041c0,0.855-0.173,1.601-0.516,2.236c-0.344,0.635-0.846,1.082-1.507,1.341l0.02,0.194
			c1.244,0.195,1.866,0.959,1.866,2.293v1.498h0.914v3.187h-6.162v-4.567c0-0.389-0.042-0.703-0.127-0.942
			c-0.083-0.239-0.22-0.422-0.407-0.544c-0.188-0.123-0.425-0.207-0.71-0.254c-0.285-0.045-0.629-0.068-1.029-0.068V29.447z
			 M57.93,23.888c0.376,0,0.657-0.098,0.846-0.292c0.188-0.194,0.281-0.511,0.281-0.952v-0.7c0-0.44-0.094-0.758-0.281-0.952
			c-0.188-0.195-0.47-0.292-0.846-0.292h-1.049v3.188H57.93z"/>
	</g>
	<g>
		<path fill="#FFFFFF" d="M79.933,27.758c0,0.961-0.134,1.773-0.401,2.432s-0.65,1.197-1.148,1.613
			c-0.5,0.414-1.103,0.715-1.809,0.898c-0.707,0.186-1.494,0.277-2.361,0.277c-0.891,0-1.695-0.092-2.414-0.277
			c-0.719-0.184-1.33-0.484-1.835-0.898c-0.505-0.416-0.897-0.955-1.177-1.613c-0.278-0.658-0.418-1.471-0.418-2.432v-5.969h-1.068
			v-2.922h6.77v2.922h-0.713v6.877c0,0.404,0.086,0.695,0.26,0.873c0.171,0.18,0.43,0.268,0.774,0.268s0.603-0.088,0.774-0.268
			c0.172-0.178,0.259-0.469,0.259-0.873v-6.877h-0.713v-2.922h6.29v2.922h-1.069V27.758z"/>
		<path fill="#FFFFFF" d="M89.341,32.729h-7.769v-2.922h1.068v-8.018h-1.068v-2.922h8c0.725,0,1.381,0.074,1.969,0.223
			s1.084,0.389,1.487,0.721c0.404,0.334,0.716,0.767,0.937,1.301c0.219,0.535,0.329,1.182,0.329,1.943
			c0,0.771-0.11,1.422-0.329,1.949c-0.221,0.529-0.532,0.959-0.937,1.293c-0.403,0.332-0.899,0.572-1.487,0.721
			c-0.588,0.15-1.244,0.223-1.969,0.223H87.63v2.566h1.711V32.729z M88.235,24.711c0.333,0,0.588-0.09,0.767-0.268
			c0.178-0.178,0.268-0.469,0.268-0.873V22.93c0-0.404-0.086-0.695-0.259-0.873c-0.173-0.18-0.43-0.268-0.775-0.268H87.63v2.922
			H88.235z"/>
	</g>
	<g>
		<path fill="#FFFFFF" d="M7.605,12.217c0-0.177,0.037-0.332,0.11-0.464c0.074-0.132,0.177-0.245,0.311-0.337
			c0.133-0.093,0.293-0.17,0.48-0.23s0.392-0.107,0.617-0.141c0.224-0.034,0.464-0.057,0.72-0.068
			c0.256-0.011,0.521-0.017,0.794-0.017c0.367,0,0.751,0.014,1.153,0.041c0.402,0.028,0.821,0.077,1.258,0.15
			c0.101,0.02,0.172,0.055,0.213,0.106c0.041,0.05,0.062,0.107,0.062,0.17c0,0.047-0.01,0.092-0.029,0.137
			c-0.019,0.044-0.044,0.085-0.076,0.122c-0.032,0.038-0.068,0.067-0.111,0.089c-0.042,0.022-0.086,0.033-0.133,0.033
			c-0.163,0-0.332-0.011-0.508-0.032c-0.176-0.021-0.359-0.045-0.551-0.071c-0.191-0.026-0.387-0.053-0.59-0.079
			c-0.203-0.027-0.411-0.046-0.626-0.059c-0.039,0.274-0.093,0.546-0.163,0.815c-0.07,0.269-0.142,0.545-0.215,0.828
			c-0.074,0.282-0.147,0.565-0.22,0.846c-0.073,0.282-0.144,0.552-0.211,0.81c-0.067,0.258-0.129,0.496-0.186,0.714
			c-0.057,0.219-0.105,0.406-0.146,0.563c-0.017,0.07-0.044,0.135-0.081,0.194c-0.036,0.059-0.077,0.11-0.122,0.153
			s-0.092,0.077-0.14,0.101c-0.048,0.024-0.093,0.036-0.135,0.036c-0.125,0-0.228-0.028-0.308-0.085
			c-0.081-0.057-0.122-0.149-0.122-0.275c0-0.04,0.006-0.084,0.019-0.133c0.046-0.186,0.093-0.373,0.139-0.559
			c0.046-0.187,0.095-0.381,0.146-0.584c0.051-0.204,0.115-0.418,0.193-0.645c0.078-0.225,0.165-0.474,0.259-0.745
			s0.198-0.575,0.309-0.912c0.111-0.337,0.23-0.711,0.359-1.124c-0.112,0.009-0.225,0.019-0.34,0.029
			c-0.115,0.011-0.227,0.026-0.335,0.044c-0.109,0.02-0.211,0.043-0.309,0.072c-0.097,0.028-0.187,0.064-0.267,0.109
			c-0.081,0.044-0.145,0.097-0.191,0.159c-0.047,0.062-0.071,0.135-0.071,0.219c0,0.004-0.002,0.029-0.007,0.073
			c-0.005,0.044-0.022,0.092-0.052,0.144c-0.03,0.052-0.077,0.1-0.142,0.143c-0.065,0.043-0.157,0.065-0.276,0.065
			c-0.119,0-0.212-0.021-0.277-0.063c-0.066-0.042-0.114-0.089-0.144-0.14C7.629,12.361,7.609,12.293,7.605,12.217z"/>
		<path fill="#FFFFFF" d="M13.246,14.493c0.086-0.117,0.183-0.243,0.291-0.377c0.107-0.134,0.251-0.289,0.432-0.464
			c0.181-0.175,0.328-0.302,0.443-0.378c0.115-0.077,0.223-0.115,0.324-0.115c0.025,0,0.054,0.004,0.085,0.014
			c0.032,0.01,0.062,0.028,0.09,0.053c0.028,0.026,0.052,0.062,0.071,0.108c0.019,0.046,0.028,0.106,0.028,0.179
			c0,0.146-0.02,0.289-0.06,0.427c-0.04,0.139-0.116,0.307-0.228,0.505c-0.112,0.198-0.187,0.369-0.226,0.513
			s-0.059,0.294-0.059,0.451c0,0.086,0.013,0.155,0.038,0.206c0.025,0.052,0.058,0.078,0.098,0.078c0.05,0,0.104-0.011,0.161-0.032
			c0.057-0.021,0.114-0.049,0.171-0.083c0.057-0.034,0.113-0.072,0.167-0.116c0.055-0.043,0.106-0.089,0.155-0.136
			c0.116-0.109,0.229-0.232,0.342-0.371l0.054,0.843c-0.038,0.027-0.086,0.062-0.144,0.104s-0.122,0.086-0.193,0.132
			s-0.147,0.093-0.229,0.141c-0.082,0.048-0.165,0.09-0.248,0.126c-0.084,0.036-0.167,0.067-0.25,0.09
			c-0.083,0.024-0.163,0.036-0.239,0.036c-0.119,0-0.222-0.029-0.309-0.089c-0.087-0.059-0.159-0.134-0.215-0.226
			c-0.057-0.091-0.099-0.191-0.127-0.3c-0.028-0.109-0.042-0.211-0.042-0.308c0-0.068,0.009-0.145,0.028-0.229
			s0.042-0.169,0.069-0.254c0.027-0.085,0.058-0.168,0.092-0.25c0.034-0.081,0.066-0.153,0.096-0.217
			c0.03-0.063,0.055-0.116,0.077-0.157c0.022-0.04,0.036-0.063,0.043-0.07l-0.066-0.01c-0.036,0.023-0.097,0.082-0.182,0.175
			s-0.182,0.212-0.289,0.355c-0.108,0.143-0.219,0.304-0.334,0.482c-0.115,0.179-0.219,0.362-0.312,0.552
			c-0.046,0.094-0.084,0.176-0.113,0.246c-0.03,0.07-0.059,0.126-0.087,0.169s-0.06,0.075-0.093,0.096
			c-0.033,0.022-0.077,0.033-0.129,0.033c-0.07,0-0.125-0.019-0.165-0.056c-0.04-0.038-0.071-0.088-0.092-0.15
			c-0.021-0.062-0.035-0.133-0.042-0.212c-0.006-0.08-0.009-0.161-0.009-0.244c0-0.145,0.001-0.334,0.005-0.569
			c0.003-0.234,0.013-0.494,0.03-0.78c0.017-0.285,0.047-0.581,0.092-0.887c0.044-0.306,0.089-0.61,0.133-0.913
			c0.044-0.303,0.11-0.591,0.198-0.864c0.088-0.274,0.194-0.515,0.32-0.723c0.125-0.208,0.273-0.373,0.441-0.496
			c0.169-0.123,0.363-0.184,0.583-0.184c0.114,0,0.207,0.017,0.28,0.051c0.073,0.034,0.131,0.081,0.174,0.143
			c0.043,0.061,0.073,0.135,0.09,0.221c0.017,0.085,0.025,0.182,0.025,0.288c0,0.158-0.022,0.333-0.066,0.524
			s-0.103,0.391-0.176,0.598c-0.072,0.206-0.155,0.416-0.248,0.628c-0.093,0.212-0.188,0.417-0.285,0.616
			c-0.097,0.2-0.193,0.388-0.286,0.564c-0.094,0.177-0.177,0.332-0.249,0.466L13.246,14.493z M13.526,12.502
			c0.125-0.322,0.215-0.595,0.271-0.816c0.056-0.222,0.084-0.385,0.084-0.491c0-0.16-0.022-0.24-0.068-0.24
			c-0.054,0-0.136,0.09-0.243,0.269c-0.108,0.179-0.234,0.439-0.38,0.781c-0.036,0.116-0.069,0.236-0.1,0.361
			c-0.03,0.124-0.055,0.248-0.073,0.373c-0.018,0.124-0.036,0.246-0.053,0.366c-0.018,0.12-0.034,0.233-0.049,0.339
			c-0.046,0.25-0.082,0.495-0.106,0.735c0.057-0.133,0.119-0.277,0.187-0.433c0.067-0.156,0.134-0.311,0.199-0.463
			c0.066-0.153,0.127-0.298,0.186-0.434C13.44,12.713,13.489,12.598,13.526,12.502z"/>
		<path fill="#FFFFFF" d="M16.623,16.425c-0.197,0-0.369-0.036-0.517-0.109c-0.148-0.073-0.271-0.171-0.37-0.294
			c-0.098-0.124-0.172-0.267-0.221-0.428c-0.05-0.162-0.074-0.333-0.074-0.511c0-0.116,0.022-0.255,0.066-0.417
			c0.044-0.161,0.09-0.304,0.137-0.429c0.047-0.125,0.106-0.244,0.178-0.358c0.071-0.113,0.155-0.213,0.25-0.299
			c0.096-0.087,0.202-0.156,0.321-0.206c0.119-0.051,0.25-0.077,0.396-0.077c0.118,0,0.228,0.019,0.329,0.057
			c0.102,0.038,0.19,0.091,0.265,0.159c0.075,0.069,0.134,0.152,0.176,0.249c0.042,0.097,0.063,0.205,0.063,0.326
			c0,0.127-0.042,0.271-0.128,0.43c-0.085,0.159-0.186,0.295-0.299,0.408c-0.114,0.114-0.25,0.214-0.408,0.303
			s-0.328,0.158-0.512,0.207c0.032,0.056,0.062,0.102,0.094,0.139c0.03,0.038,0.062,0.066,0.093,0.087
			c0.032,0.021,0.065,0.035,0.1,0.043s0.073,0.012,0.113,0.012c0.126,0,0.26-0.024,0.4-0.074c0.141-0.049,0.277-0.111,0.41-0.186
			c0.133-0.074,0.258-0.155,0.376-0.243c0.118-0.088,0.219-0.171,0.301-0.249l0.408,0.414c-0.186,0.198-0.383,0.373-0.592,0.525
			c-0.09,0.065-0.188,0.129-0.292,0.192c-0.104,0.062-0.214,0.119-0.329,0.167c-0.115,0.049-0.234,0.088-0.357,0.118
			C16.875,16.411,16.75,16.425,16.623,16.425z M16.201,14.919c0.077,0,0.16-0.019,0.25-0.058c0.09-0.038,0.173-0.087,0.251-0.146
			c0.077-0.061,0.153-0.14,0.227-0.242c0.074-0.101,0.111-0.185,0.111-0.25c0-0.093-0.018-0.169-0.052-0.229
			c-0.036-0.06-0.078-0.089-0.129-0.089c-0.091,0-0.169,0.016-0.233,0.049s-0.119,0.076-0.162,0.128
			c-0.043,0.053-0.078,0.112-0.104,0.18c-0.027,0.067-0.058,0.15-0.092,0.249c-0.035,0.099-0.055,0.181-0.059,0.244
			C16.203,14.819,16.201,14.874,16.201,14.919z"/>
	</g>
</g>
</svg>
