<?xml version="1.0" encoding="iso-8859-1"?>
<!-- Generator: Adobe Illustrator 16.0.0, SVG Export Plug-In . SVG Version: 6.00 Build 0)  -->
<!DOCTYPE svg PUBLIC "-//W3C//DTD SVG 1.1//EN" "http://www.w3.org/Graphics/SVG/1.1/DTD/svg11.dtd">
<svg version="1.1" id="Capa_1" xmlns="http://www.w3.org/2000/svg" xmlns:xlink="http://www.w3.org/1999/xlink" x="0px" y="0px"
	 width="429.766px" height="429.766px" viewBox="0 0 429.766 429.766" style="enable-background:new 0 0 429.766 429.766;"
	 xml:space="preserve">
<g>
	<path style="fill:#030303;" d="M429.766,209.028h-33.519c-3.043-95.437-80.075-172.461-175.509-175.511V0h-11.711v33.517
		c-95.434,3.044-172.461,80.075-175.512,175.511H0v11.71h33.516c3.045,95.434,80.078,172.461,175.512,175.509v33.519h11.711v-33.519
		c95.434-3.042,172.461-80.075,175.509-175.509h33.519V209.028z M384.536,209.028h-46.693v-31.226h-11.711v31.226H279.29v-31.226
		h-11.71v31.226h-46.842v-46.842h31.226v-11.71h-31.226v-46.842h31.226v-11.71h-31.226V45.227
		C309.71,48.266,381.5,120.05,384.536,209.028z M209.027,45.227v46.696h-31.226v11.71h31.226v46.842h-31.226v11.71h31.226v46.842
		h-46.842v-31.226h-11.71v31.226h-46.842v-31.226h-11.71v31.226H45.227C48.266,120.05,120.058,48.266,209.027,45.227z
		 M45.232,220.738h46.696v31.231h11.71v-31.231h46.842v31.231h11.711v-31.231h46.842v46.842h-31.232v11.711h31.226v46.842h-31.226
		v11.711h31.226v46.692C120.058,381.5,48.266,309.711,45.232,220.738z M220.738,384.531v-46.693h31.226v-11.711h-31.226v-46.842
		h31.226v-11.711h-31.226v-46.842h46.842v31.232h11.71v-31.232h46.842v31.232h11.711v-31.232h46.693
		C381.5,309.711,309.71,381.5,220.738,384.531z"/>
</g>
<g>
</g>
<g>
</g>
<g>
</g>
<g>
</g>
<g>
</g>
<g>
</g>
<g>
</g>
<g>
</g>
<g>
</g>
<g>
</g>
<g>
</g>
<g>
</g>
<g>
</g>
<g>
</g>
<g>
</g>
</svg>
