<?xml version="1.0" encoding="utf-8"?>
<!-- Generator: Adobe Illustrator 16.0.4, SVG Export Plug-In . SVG Version: 6.00 Build 0)  -->
<!DOCTYPE svg PUBLIC "-//W3C//DTD SVG 1.1//EN" "http://www.w3.org/Graphics/SVG/1.1/DTD/svg11.dtd">
<svg version="1.1" id="Layer_1" xmlns="http://www.w3.org/2000/svg" xmlns:xlink="http://www.w3.org/1999/xlink" x="0px" y="0px"
	 width="500px" height="500px" viewBox="0 0 500 500" enable-background="new 0 0 500 500" xml:space="preserve">
<path fill="#EE4036" d="M433.281,236.417c0,105.534-85.558,191.092-191.096,191.092c-105.536,0-191.094-85.558-191.094-191.092
	c0-105.54,85.558-191.096,191.094-191.096C347.724,45.321,433.281,130.877,433.281,236.417z"/>
<g>
	<path fill="none" stroke="#FFFFFF" stroke-width="4" stroke-miterlimit="10" d="M444.989,236.415
		c0,111.596-90.469,202.065-202.062,202.065c-111.598,0-202.066-90.469-202.066-202.065c0-111.597,90.468-202.066,202.066-202.066
		C354.521,34.348,444.989,124.817,444.989,236.415z"/>
	
		<circle fill="none" stroke="#FFFFFF" stroke-width="2" stroke-linecap="round" stroke-miterlimit="10" stroke-dasharray="2,5" cx="242.925" cy="236.415" r="217.531"/>
	<path opacity="0.5" fill="#5E5E5E" d="M415.813,240.024l-15.622-8.254l-11.103-11.188l-10.764-13.534l-9.374-6.616L349.86,181.36
		l-13.541-11.108l-6.938-13.884l-8.679-2.43l-15.619-17.355l-6.595,5.9l-11.456,9.373l-14.577,20.131l-6.597,2.083l-6.248,6.248
		l-4.512,2.081l4.167,7.291l0.343,5.904l6.24,6.248l12.484,4.856l13.862,3.475l12.8,13.534l-12.585-7.636l-15.798-5.898
		l-15.273-4.861l-6.709-10.485v-2.707l-9.135-13.885l10.3-3.471l-26.034-34.71l-19.786-7.29l-9.72-12.147l-9.373,4.164l-5.899,7.289
		l-8.331,14.232l-5.553,2.431l-5.901,1.733l-7.29,9.027c0,0-7.637,8.331-8.677,8.331c-1.043,0-6.945,8.329-6.945,8.329
		l-10.41,15.968l-3.125,3.817l-5.553,8.329l-13.539-2.776l-3.469,6.244l-5.555,5.894l-26.377,46.5l-8.327,4.136l-8.67,15.92
		l14.872-1.691l12.187-7.991l18.05-8.614l13.19-14.58l5.254,13.374l26.743-11.152l11.348-16.614l5.947-13.029l23.255-19.487
		l-8.486,14.632l35.561-14.632l-29.854,19.143l-12.831-0.234l-4.832,6.442l-12.813,20.542l19.654,5.472l-5.055-0.132l-11.964-1.293
		l-31.514,11.893l-5.553,8.27l-3.472,7.991l29.502-4.784l24.297-3.207l12.143,5.274l15.266-0.346l1.024-13.889l10.382-4.511
		l-0.407-7.986l8.551-11.105l13.403-4.97v-9.957l19.597,30.352l8.218-1.176l15.759,0.928l7.991,17.385l25.52-6.553v-6.918
		l0.354-8.327l-7.287-7.638l-10.757-7.293l14.577,2.083l8.328,7.291l8.333,2.51l5.899,8.244l24.649,2.784l-0.348-9.378l9.718,4.514
		l15.271-1.039l24.488,6.594l30.702-0.69L415.813,240.024z M188.604,178.246l-12.08,2.685l12.08-10.738V178.246z M243.803,186.249
		l-18.458-10.822v-7.648l-11.38-10.214l3.065,17.058l-11.923-17.058l-9.919,14.24v-12.48l-39.757,30.196l13.444-22.146l-11.675,4.43
		l11.271-16.908l11.743-3.594l10.4-18.97l8.859-3.452l5.234,6.661l22.407,7.277l17.58,26.169l-10.549,2.817L243.803,186.249z
		 M369.448,211.259l-9.74-5.613l-13.692-14.517l-16.504-10.198l-5.236-10.738h-8.45l-20.684-18.891l8.652-7.277l12.833,15.174h8.86
		l8.408,13.814l14.539,13.236l14.308,14.269l12.259,8.665l7.233,13.347L369.448,211.259z"/>
	<g>
		<g>
			<g>
				<g>
					
						<line fill="none" stroke="#464C53" stroke-width="1.7" stroke-linecap="round" stroke-linejoin="round" x1="130.851" y1="129.188" x2="350.881" y2="349.222"/>
					<g>
						<polygon fill="#464C53" points="129.917,138.087 131.618,138.026 131.311,129.65 139.689,129.956 139.749,128.255 
							129.546,127.885 						"/>
					</g>
					<g>
						<polygon fill="#464C53" points="341.981,350.155 342.042,348.454 350.418,348.762 350.112,340.384 351.813,340.323 
							352.184,350.526 						"/>
					</g>
				</g>
			</g>
			<g>
				<g>
					
						<line fill="none" stroke="#464C53" stroke-width="1.7" stroke-linecap="round" stroke-linejoin="round" x1="354.282" y1="129.188" x2="134.25" y2="349.222"/>
					<g>
						<polygon fill="#464C53" points="345.383,128.254 345.443,129.955 353.819,129.647 353.514,138.025 355.215,138.085 
							355.585,127.883 						"/>
					</g>
					<g>
						<polygon fill="#464C53" points="133.317,340.322 135.018,340.383 134.71,348.759 143.088,348.453 143.148,350.153 
							132.946,350.524 						"/>
					</g>
				</g>
			</g>
		</g>
	</g>
	<g>
		<path fill="#454C53" d="M350.146,214.243l7.532,7.536l-49.313,49.314c-0.536,0.536-1.418,0.536-1.957,0l-3.982-3.983
			c-0.539-0.539-0.539-1.42,0-1.959l18.982-18.983c7.984-7.36,6.912-10.116,11.349-14.549L350.146,214.243L350.146,214.243z
			 M379.766,213.445l-13.477,13.477l2.217,4.609c6.566-3.725,12.42-8.607,16.404-16.404L379.766,213.445z M338.351,191.722
			L338.351,191.722l-0.624,2.753c4.174,3.985,14.273,6.826,8.695,12.767c0.708,0.883,18.897,18.897,18.897,18.897l13.302-13.304
			C367.607,209.01,352.972,193.665,338.351,191.722z"/>
	</g>
	<g>
		<g id="Artwork_11_">
			<path fill="#454C53" d="M176.506,262.016l-13.844-4.729c0,0-0.578-0.273-0.799-0.494c-1.503-1.501-6.743-6.744-13.513-13.513
				c-0.27-0.186-0.087-0.448,0.001-0.542c9.445-9.445,18.659-18.656,24.97-24.966c5.986-5.989,3.588-11.495-2.07-5.837
				c-1.483,1.482-4.542,1.528-8.332,0.727c-0.839-0.178-1.67-0.368-2.549-0.575c-8.807-2.042-18.726-4.339-33.587,9.157
				c-0.082,0.075-0.292,0.301-0.614-0.024c-2.883-2.881-5.105-5.225-7.164-7.284c-0.452-0.452-0.095-0.763-0.095-0.763l1.083-1.083
				c1.363-1.362,1.046-3.137-0.706-3.941l-15.135-6.971c-1.75-0.807-2.524-0.033-1.718,1.717l6.969,15.137
				c0.807,1.75,2.582,2.067,3.944,0.703l0.868-0.869c0,0,0.477-0.619,0.977-0.119c2.053,2.054,4.187,4.187,7.064,7.064
				c0.361,0.319,0.319,0.595,0.253,0.667c-13.924,15.183-11.342,26.864-9.248,36.33l0.098,0.444
				c0.916,4.149,0.542,7.419-1.445,9.403c-4.304,4.305-2.766,10.285,6.568,0.954c6.442-6.445,15.913-15.915,25.567-25.567
				c0.072-0.072,0.22-0.176,0.506,0.067c6.886,6.888,12.177,12.178,13.559,13.56c0.179,0.18,0.42,0.705,0.42,0.705l4.736,13.875
				c0.625,1.819,1.753,1.866,2.512,0.093l1.863-4.352c0.76-1.769,2.83-3.84,4.602-4.6l4.353-1.865
				C178.372,263.769,178.329,262.639,176.506,262.016z M159,217.996c0.869,0.203,1.768,0.409,2.663,0.6
				c1.062,0.224,2.082,0.384,3.059,0.479c0,0-15.04,15.043-20.055,20.06c-0.266,0.264-0.525-0.062-0.525-0.062
				c-4.453-4.455-8.664-8.666-13.061-13.058c-0.211-0.244-0.1-0.392-0.025-0.461C143.435,214.392,151.01,216.145,159,217.996z
				 M119.772,264.025c-0.09-0.964-0.249-1.989-0.488-3.082l-0.099-0.444c-1.958-8.847-3.978-17.982,7.617-30.726
				c0.065-0.072,0.296-0.155,0.497,0.08c4.4,4.399,8.696,8.699,13.154,13.153c0,0,0.131,0.212-0.068,0.408
				C135.173,248.631,119.772,264.025,119.772,264.025z"/>
		</g>
	</g>
	<g>
		<path fill="#454C53" d="M261.944,129.061v-9.01c0-1.01-0.781-1.838-1.791-1.838h-33.275c-1.012,0-1.792,0.828-1.792,1.838v9.01
			h6.433v-4.414h23.991v4.414H261.944z"/>
		<path fill="#454C53" d="M205.976,132.644c-1.012,0-1.849,0.856-1.849,1.867v49.213c0,1.01,0.827,1.866,1.849,1.866h6.884v1.655
			c0,0.219,0.064,0.459,0.129,0.642c0.258,0.645,0.927,1.196,1.726,1.196h10.388c0.8,0,1.479-0.552,1.729-1.196
			c0.064-0.183,0.083-0.431,0.083-0.642v-1.655h33.275v1.655c0,0.219,0.017,0.459,0.081,0.642c0.259,0.645,0.931,1.196,1.729,1.196
			h10.387c0.799,0,1.479-0.552,1.728-1.196c0.063-0.183,0.128-0.431,0.128-0.642v-1.655h6.793c1.012,0,1.849-0.856,1.849-1.866
			V134.51c0-1.01-0.828-1.867-1.849-1.867h-19.091h-6.435h-23.991h-6.433H205.976z M227.475,155.267
			c0-1.014,0.874-1.849,1.885-1.849h8.41v-5.606v-2.905c0-1.01,0.828-1.876,1.849-1.876h7.792c1.014,0,1.852,0.866,1.852,1.876
			v2.905v5.606h8.409c1.011,0,1.794,0.835,1.794,1.849v7.692c0,1.01-0.783,1.848-1.794,1.848h-8.409v8.512
			c0,1.011-0.83,1.875-1.852,1.875h-7.792c-1.012,0-1.849-0.864-1.849-1.875v-8.501h-8.41c-1.011,0-1.885-0.838-1.885-1.849V155.267
			L227.475,155.267z"/>
	</g>
	<g>
		<g>
			<path fill="#454C53" d="M270.485,343.975l-15.079-6.269l15.091-6.227c2.323-0.965,3.432-3.624,2.479-5.946
				c-0.968-2.323-3.634-3.435-5.953-2.476l-23.51,9.706l-23.489-9.765c-2.319-0.964-4.99,0.139-5.956,2.458
				c-0.964,2.324,0.136,4.986,2.458,5.953l15.079,6.271l-15.095,6.227c-2.322,0.96-3.432,3.624-2.472,5.948
				c0.727,1.756,2.422,2.816,4.212,2.816c0.579,0,1.168-0.109,1.735-0.349l23.514-9.703l23.491,9.762
				c0.572,0.237,1.161,0.351,1.745,0.351c1.784,0,3.478-1.056,4.204-2.81C273.904,347.606,272.807,344.939,270.485,343.975z"/>
			<path fill="#454C53" d="M243.504,326.963c10.644,0,19.27-8.626,19.27-19.267c0-2.67-1.217-6.194-3.037-9.973
				c-0.232-0.495-0.788-0.766-1.325-0.647c-0.538,0.116-0.928,0.59-0.938,1.142c-0.072,3.999-1.151,6.719-2.479,8.557
				c-0.157,0.214-0.443,0.28-0.681,0.153c-0.229-0.122-0.34-0.404-0.242-0.65c0.934-2.46,0.485-6.113-4.271-11.254
				c-4.457-4.812-5.556-8.594-5.346-11.357c0.04-0.547-0.266-1.062-0.768-1.285c-0.501-0.229-1.092-0.111-1.474,0.285
				c-4.549,4.723-10.15,12.451-8.525,20.28c0.068,0.332-0.105,0.662-0.422,0.786c-0.314,0.126-0.672,0.011-0.852-0.279
				c-1.159-1.866-2.215-4.655-1.826-8.339c0.063-0.598-0.303-1.16-0.877-1.341c-0.574-0.183-1.201,0.067-1.489,0.597
				c-2.094,3.768-3.978,8.503-3.978,13.329C224.24,318.337,232.862,326.963,243.504,326.963z"/>
		</g>
	</g>
</g>
<g>
	<path fill="#FFFFFF" d="M147.112,223.998h27.514v11.581h-3.887v15.544c-1.192,0.572-2.579,1.154-4.158,1.75
		c-1.582,0.598-3.394,1.129-5.44,1.594c-2.048,0.465-4.341,0.854-6.879,1.166c-2.54,0.311-5.364,0.465-8.473,0.465
		c-4.663,0-8.86-0.568-12.59-1.711c-3.732-1.139-6.905-2.951-9.522-5.44c-2.617-2.485-4.624-5.711-6.023-9.677
		c-1.399-3.963-2.098-8.796-2.098-14.495c0-5.648,0.699-10.464,2.098-14.456s3.394-7.23,5.985-9.716
		c2.59-2.489,5.751-4.301,9.481-5.443c3.732-1.139,7.902-1.708,12.515-1.708c3.159,0,6.023,0.155,8.588,0.465
		c2.565,0.313,4.871,0.714,6.918,1.205c2.046,0.494,3.858,1.038,5.44,1.632c1.579,0.598,2.966,1.179,4.158,1.749v18.577h-19.431
		v-3.652c0-2.227-0.454-3.808-1.36-4.741c-0.908-0.933-2.345-1.401-4.314-1.401c-1.97,0-3.408,0.468-4.314,1.401
		c-0.908,0.933-1.36,2.515-1.36,4.741v22.694c0,2.229,0.452,3.809,1.36,4.741c0.906,0.933,2.344,1.401,4.314,1.401
		c1.969,0,3.406-0.469,4.314-1.401c0.906-0.933,1.36-2.512,1.36-4.741v-0.544h-4.197V223.998z"/>
	<path fill="#FFFFFF" d="M213.409,207.286h-9.403v12.28h6.839v8.862h-6.839v13.837h9.403v-12.281h17.412v25.026h-53.242v-12.745
		h4.663v-34.979h-4.663v-12.745h53.242v23.473h-17.412V207.286z"/>
	<path fill="#FFFFFF" d="M264.396,242.265h4.665l-1.322-6.143h-10.493l-1.243,6.143h4.661v12.745h-26.581v-12.745h3.108
		l13.138-47.724h28.29l13.137,47.724h3.109v12.745h-30.469V242.265z M258.956,227.884h7.15l-3.188-15.544h-0.778L258.956,227.884z"
		/>
	<path fill="#FFFFFF" d="M323.776,242.265h5.13v12.745H297.35v-12.745h4.665v-34.979h-4.665v-12.745h36.452
		c3.16,0,6.025,0.31,8.59,0.933c2.565,0.62,4.729,1.62,6.49,2.992c1.761,1.373,3.121,3.175,4.079,5.402
		c0.958,2.229,1.439,4.949,1.439,8.159c0,3.422-0.689,6.401-2.062,8.941c-1.372,2.54-3.381,4.327-6.021,5.361l0.076,0.777
		c4.975,0.778,7.464,3.837,7.464,9.172v5.987h3.652v12.745h-24.64v-18.264c0-1.556-0.168-2.812-0.506-3.77
		c-0.335-0.958-0.88-1.686-1.632-2.176c-0.75-0.493-1.695-0.829-2.837-1.012c-1.139-0.181-2.515-0.272-4.118-0.272V242.265z
		 M327.974,220.035c1.502,0,2.628-0.389,3.381-1.167c0.749-0.778,1.126-2.046,1.126-3.808v-2.799c0-1.762-0.377-3.03-1.126-3.808
		c-0.753-0.778-1.879-1.167-3.381-1.167h-4.197v12.749H327.974z"/>
</g>
<g>
	<path fill="#FFFFFF" d="M310.408,300.061c0,3.846-0.534,7.088-1.604,9.727c-1.069,2.633-2.6,4.785-4.595,6.447
		c-1.996,1.66-4.406,2.863-7.233,3.596c-2.824,0.738-5.971,1.105-9.44,1.105c-3.561,0-6.78-0.367-9.652-1.105
		c-2.875-0.732-5.319-1.936-7.337-3.596c-2.021-1.662-3.59-3.814-4.703-6.447c-1.116-2.639-1.676-5.881-1.676-9.727v-23.867h-4.272
		v-11.686h27.071v11.686h-2.85v27.502c0,1.613,0.345,2.777,1.034,3.488c0.687,0.715,1.721,1.068,3.1,1.068
		c1.376,0,2.41-0.354,3.1-1.068c0.687-0.711,1.031-1.875,1.031-3.488v-27.502h-2.85v-11.686h25.152v11.686h-4.276V300.061z"/>
	<path fill="#FFFFFF" d="M348.027,319.938h-31.063v-11.686h4.273v-32.059h-4.273v-11.686h31.99c2.897,0,5.521,0.297,7.872,0.891
		c2.353,0.596,4.336,1.557,5.948,2.885c1.616,1.332,2.862,3.064,3.742,5.203c0.879,2.137,1.318,4.725,1.318,7.764
		c0,3.09-0.439,5.689-1.318,7.803c-0.88,2.115-2.126,3.836-3.742,5.164c-1.612,1.332-3.596,2.293-5.948,2.887
		c-2.351,0.596-4.975,0.889-7.872,0.889h-7.768v10.26h6.841V319.938z M343.609,287.875c1.331,0,2.353-0.354,3.064-1.068
		c0.712-0.711,1.069-1.875,1.069-3.488v-2.564c0-1.617-0.345-2.779-1.034-3.492c-0.689-0.715-1.721-1.068-3.1-1.068h-2.423v11.682
		H343.609z"/>
</g>
<g>
	<path fill="#FFFFFF" d="M126.74,173.369c0-0.708,0.147-1.328,0.441-1.856c0.296-0.528,0.708-0.977,1.243-1.349
		c0.533-0.372,1.173-0.679,1.92-0.919c0.746-0.24,1.568-0.428,2.465-0.564c0.895-0.134,1.855-0.226,2.88-0.273
		c1.024-0.046,2.083-0.07,3.175-0.07c1.467,0,3.004,0.056,4.611,0.165c1.606,0.109,3.283,0.309,5.029,0.598
		c0.405,0.079,0.689,0.22,0.854,0.424c0.165,0.203,0.247,0.43,0.247,0.68c0,0.187-0.038,0.368-0.114,0.545
		c-0.076,0.177-0.177,0.34-0.303,0.489c-0.127,0.15-0.274,0.269-0.443,0.357c-0.169,0.088-0.346,0.133-0.531,0.133
		c-0.65,0-1.327-0.042-2.031-0.126c-0.704-0.084-1.437-0.179-2.201-0.283c-0.764-0.106-1.549-0.21-2.359-0.314
		c-0.81-0.106-1.645-0.186-2.505-0.237c-0.152,1.097-0.369,2.184-0.648,3.261c-0.28,1.077-0.568,2.18-0.862,3.311
		c-0.294,1.129-0.588,2.258-0.881,3.384c-0.292,1.126-0.574,2.205-0.843,3.237c-0.269,1.032-0.517,1.984-0.743,2.857
		c-0.228,0.875-0.424,1.624-0.587,2.253c-0.069,0.281-0.177,0.539-0.322,0.776c-0.144,0.235-0.307,0.439-0.485,0.613
		c-0.181,0.174-0.367,0.309-0.56,0.405c-0.193,0.095-0.372,0.143-0.539,0.143c-0.5,0-0.911-0.114-1.233-0.342
		c-0.324-0.228-0.486-0.595-0.486-1.101c0-0.16,0.025-0.337,0.076-0.531c0.185-0.745,0.372-1.49,0.557-2.234
		s0.379-1.523,0.582-2.337c0.204-0.814,0.461-1.673,0.773-2.576c0.312-0.901,0.658-1.895,1.038-2.979
		c0.379-1.083,0.791-2.299,1.233-3.645c0.443-1.347,0.922-2.845,1.436-4.496c-0.447,0.035-0.899,0.076-1.36,0.118
		c-0.46,0.044-0.906,0.104-1.341,0.179c-0.435,0.076-0.846,0.171-1.235,0.287c-0.389,0.114-0.747,0.259-1.067,0.436
		c-0.323,0.177-0.577,0.389-0.764,0.636c-0.188,0.247-0.282,0.54-0.282,0.875c0,0.018-0.009,0.114-0.03,0.291
		s-0.09,0.369-0.209,0.576c-0.119,0.209-0.308,0.398-0.567,0.571c-0.258,0.172-0.626,0.258-1.104,0.258s-0.848-0.084-1.11-0.253
		c-0.264-0.169-0.456-0.356-0.574-0.558C126.834,173.944,126.755,173.674,126.74,173.369z"/>
	<path fill="#FFFFFF" d="M149.295,182.471c0.346-0.468,0.734-0.971,1.164-1.508c0.43-0.536,1.005-1.156,1.727-1.858
		s1.311-1.207,1.771-1.513c0.46-0.308,0.892-0.461,1.297-0.461c0.101,0,0.215,0.019,0.341,0.058
		c0.126,0.038,0.247,0.109,0.361,0.212c0.114,0.103,0.208,0.249,0.285,0.432c0.076,0.185,0.114,0.424,0.114,0.716
		c0,0.583-0.081,1.153-0.24,1.708c-0.16,0.555-0.463,1.227-0.911,2.018c-0.447,0.791-0.748,1.474-0.904,2.049
		c-0.157,0.576-0.234,1.178-0.234,1.806c0,0.343,0.051,0.618,0.152,0.824c0.102,0.207,0.232,0.31,0.392,0.31
		c0.203,0,0.418-0.043,0.646-0.128c0.228-0.085,0.455-0.196,0.683-0.333c0.228-0.136,0.451-0.291,0.67-0.466
		c0.22-0.174,0.425-0.356,0.62-0.542c0.463-0.435,0.918-0.928,1.366-1.483l0.215,3.368c-0.152,0.11-0.343,0.25-0.576,0.416
		s-0.489,0.343-0.771,0.528c-0.283,0.187-0.588,0.375-0.917,0.564c-0.329,0.191-0.659,0.359-0.993,0.506
		c-0.334,0.146-0.666,0.268-1,0.362s-0.651,0.142-0.955,0.142c-0.475,0-0.887-0.118-1.237-0.355
		c-0.349-0.237-0.636-0.538-0.86-0.905c-0.225-0.365-0.394-0.765-0.506-1.198c-0.112-0.435-0.167-0.845-0.167-1.23
		c0-0.272,0.038-0.577,0.112-0.913c0.074-0.336,0.166-0.677,0.277-1.017c0.109-0.34,0.232-0.672,0.368-0.996
		c0.136-0.324,0.263-0.614,0.381-0.87c0.119-0.255,0.221-0.463,0.31-0.626c0.087-0.161,0.144-0.254,0.171-0.281l-0.266-0.038
		c-0.144,0.092-0.386,0.326-0.728,0.701c-0.341,0.376-0.727,0.849-1.157,1.42c-0.43,0.572-0.875,1.214-1.335,1.928
		c-0.46,0.713-0.874,1.448-1.246,2.208c-0.185,0.376-0.336,0.704-0.455,0.983c-0.119,0.278-0.234,0.504-0.348,0.674
		c-0.114,0.17-0.239,0.299-0.373,0.386s-0.308,0.131-0.519,0.131c-0.278,0-0.498-0.076-0.658-0.226
		c-0.16-0.15-0.283-0.349-0.367-0.599c-0.083-0.25-0.139-0.533-0.164-0.849c-0.025-0.318-0.038-0.642-0.038-0.976
		c0-0.579,0.006-1.336,0.019-2.274c0.012-0.938,0.052-1.977,0.12-3.119c0.068-1.14,0.189-2.323,0.37-3.545
		c0.178-1.224,0.355-2.44,0.533-3.65c0.177-1.211,0.441-2.364,0.792-3.457c0.35-1.094,0.777-2.057,1.279-2.889
		c0.501-0.832,1.091-1.493,1.767-1.983s1.452-0.735,2.331-0.735c0.456,0,0.829,0.068,1.12,0.204
		c0.291,0.136,0.523,0.326,0.696,0.572c0.172,0.245,0.292,0.541,0.361,0.884c0.068,0.343,0.101,0.727,0.101,1.151
		c0,0.631-0.088,1.33-0.266,2.097c-0.177,0.767-0.411,1.562-0.702,2.39c-0.291,0.825-0.622,1.664-0.993,2.511
		c-0.372,0.847-0.751,1.669-1.139,2.465c-0.387,0.797-0.77,1.55-1.145,2.257c-0.375,0.707-0.707,1.328-0.993,1.864L149.295,182.471z
		 M150.418,174.51c0.5-1.29,0.86-2.378,1.085-3.264c0.223-0.885,0.335-1.539,0.335-1.961c0-0.64-0.09-0.961-0.271-0.961
		c-0.218,0-0.544,0.359-0.974,1.076c-0.43,0.716-0.936,1.757-1.518,3.123c-0.144,0.463-0.277,0.944-0.398,1.442
		c-0.122,0.497-0.22,0.993-0.291,1.49s-0.142,0.983-0.212,1.463c-0.07,0.48-0.134,0.933-0.196,1.356
		c-0.185,1.002-0.326,1.981-0.423,2.939c0.228-0.531,0.476-1.108,0.748-1.733c0.269-0.623,0.536-1.241,0.797-1.852
		c0.262-0.612,0.509-1.189,0.741-1.733C150.073,175.352,150.267,174.89,150.418,174.51z"/>
	<path fill="#FFFFFF" d="M162.8,190.197c-0.787,0-1.477-0.146-2.067-0.438c-0.591-0.291-1.083-0.685-1.477-1.178
		c-0.394-0.494-0.689-1.064-0.885-1.713c-0.198-0.648-0.296-1.328-0.296-2.042c0-0.465,0.089-1.021,0.264-1.667
		c0.176-0.645,0.359-1.217,0.547-1.716c0.188-0.5,0.425-0.976,0.711-1.429c0.285-0.454,0.618-0.854,1-1.199
		c0.382-0.346,0.81-0.622,1.284-0.824c0.475-0.206,1.001-0.307,1.58-0.307c0.473,0,0.911,0.076,1.315,0.228
		c0.406,0.152,0.759,0.364,1.058,0.637c0.301,0.273,0.535,0.605,0.704,0.993c0.168,0.387,0.253,0.82,0.253,1.301
		c0,0.511-0.171,1.083-0.514,1.719c-0.342,0.634-0.742,1.18-1.197,1.632c-0.457,0.454-0.999,0.859-1.629,1.213
		c-0.631,0.354-1.312,0.631-2.048,0.829c0.127,0.223,0.251,0.408,0.375,0.557c0.122,0.149,0.247,0.264,0.373,0.346
		c0.128,0.083,0.261,0.141,0.4,0.174c0.141,0.033,0.291,0.049,0.45,0.049c0.506,0,1.041-0.098,1.601-0.297
		c0.562-0.198,1.106-0.444,1.639-0.742c0.531-0.297,1.033-0.621,1.505-0.971c0.473-0.351,0.873-0.683,1.202-0.996l1.632,1.657
		c-0.742,0.791-1.531,1.489-2.366,2.098c-0.361,0.261-0.752,0.517-1.17,0.769c-0.417,0.251-0.855,0.476-1.315,0.67
		c-0.459,0.196-0.937,0.353-1.43,0.47S163.306,190.197,162.8,190.197z M161.111,184.172c0.305,0,0.637-0.076,0.997-0.229
		c0.36-0.152,0.694-0.348,1.004-0.586c0.309-0.241,0.612-0.562,0.907-0.966c0.296-0.403,0.444-0.737,0.444-1.001
		c0-0.372-0.069-0.677-0.208-0.916c-0.141-0.239-0.312-0.359-0.516-0.359c-0.364,0-0.676,0.066-0.934,0.198
		c-0.258,0.133-0.474,0.303-0.647,0.514c-0.173,0.21-0.313,0.449-0.418,0.718c-0.107,0.268-0.229,0.6-0.368,0.995
		c-0.141,0.397-0.218,0.723-0.236,0.978C161.119,183.772,161.111,183.99,161.111,184.172z"/>
</g>
</svg>
